<svg width="45" height="45" viewBox="0 0 45 45" xmlns="http://www.w3.org/2000/svg" class="_1ak9dgh"><g id="IconLabelCircular"><circle fill="#21314D" cx="22.5" cy="22.5" r="22.5"></circle><path d="M17.5570474,33.2860789 C18.3258799,34.0549114 19.3509899,34.4393276 20.3760999,34.4393276 C21.4652793,34.4393276 22.5544587,34.0228767 23.3873605,33.1899748 L33.3501483,23.2271871 C34.0228767,22.5544587 34.4072929,21.6574874 34.4393276,20.6964468 L34.4393276,13.1682953 C34.4393276,12.3674281 34.1189807,11.5985956 33.5423564,11.0219712 C32.9977667,10.4453469 32.2289342,10.125 31.428067,10.125 C31.428067,10.125 31.428067,10.125 31.428067,10.125 L23.8678808,10.125 C22.9388749,10.1570347 22.0419037,10.5414509 21.3691752,11.2141794 L11.4063875,21.1769671 C9.77261844,22.8107361 9.70854907,25.4375805 11.3102834,27.0393149 L17.5570474,33.2860789 Z M12.9760872,22.7787015 L22.9388749,12.8159137 C23.1951524,12.5596362 23.547534,12.3994628 23.8678808,12.3994628 L31.3960323,12.3994628 C31.6202751,12.3994628 31.8124833,12.4955669 31.9726567,12.6237056 C32.1328301,12.783879 32.1968995,12.9760872 32.1968995,13.20033 L32.1968995,20.6964468 C32.1968995,21.0488283 32.0367261,21.4012099 31.7804486,21.6574874 L21.8176608,31.6202751 C21.0488283,32.3891076 19.8315102,32.4211423 19.1267471,31.7163792 L12.8799831,25.4696152 C12.17522,24.7328174 12.2072547,23.547534 12.9760872,22.7787015 Z M27.2635577,21.0167937 C28.1925636,21.0167937 29.1536042,20.6644121 29.8583673,19.9276143 C31.2999283,18.4860534 31.2999283,16.1475212 29.8583673,14.7059603 C28.4168064,13.2643993 26.0782742,13.2643993 24.6367133,14.7059603 C23.1951524,16.1475212 23.1951524,18.4860534 24.6367133,19.9276143 C25.3735111,20.6644121 26.3345517,21.0167937 27.2635577,21.0167937 Z M26.2384477,16.3076946 C26.5267599,16.0193825 26.8791414,15.8912437 27.2635577,15.8912437 C27.6479739,15.8912437 28.0003555,16.0193825 28.2886677,16.3076946 C28.865292,16.884319 28.865292,17.7812903 28.2886677,18.3579146 C27.7120433,18.934539 26.8150721,18.934539 26.2384477,18.3579146 C25.693858,17.7812903 25.693858,16.884319 26.2384477,16.3076946 Z" fill="#FFFFFF"></path></g></svg>