<svg width="45" height="45" viewBox="0 0 45 45" xmlns="http://www.w3.org/2000/svg" class="_1ak9dgh"><g id="IconTicketCircular"><circle fill="#21314D" cx="22.5" cy="22.5" r="22.5"></circle><path d="M20.8358719,20.9098125 L19.6300312,17.8435969 L18.41625,20.9098125 L15.04035,21.177525 L17.6675625,23.2125937 L16.791825,26.5703437 L19.6254937,24.6351 L22.4637,26.5714781 L21.583425,23.2137281 L24.215175,21.1786594 L20.8347375,20.9109469 L20.8358719,20.9098125 Z M31.575,13.21875 L13.425,13.21875 C12.172004,13.21875 11.15625,14.234504 11.15625,15.4875 L11.15625,29.1 C11.15625,30.352996 12.172004,31.36875 13.425,31.36875 L31.575,31.36875 C32.827996,31.36875 33.84375,30.352996 33.84375,29.1 L33.84375,15.4875 C33.84375,14.234504 32.827996,13.21875 31.575,13.21875 Z M31.575,18.890625 L25.903125,18.890625 L25.903125,21.159375 L31.575,21.159375 L31.575,23.428125 L25.903125,23.428125 L25.903125,25.696875 L31.575,25.696875 L31.575,28.64625 C31.575,28.8968492 31.3718492,29.1 31.12125,29.1 L13.87875,29.1 C13.6291875,29.1 13.425,28.8958125 13.425,28.64625 L13.425,15.94125 C13.425,15.6906508 13.6281508,15.4875 13.87875,15.4875 L31.12125,15.4875 C31.3708125,15.4875 31.575,15.6916875 31.575,15.94125 L31.575,18.890625 Z" fill="#FFFFFF"></path></g></svg>