<svg xmlns="http://www.w3.org/2000/svg" class="_1dvv03p" aria-labelledby="LogoIcon-title" width="140px" height="47px" viewBox="0 0 140 24"><title id="LogoIcon-title">Trainline - Finding you the cheapest tickets</title><path fill="#FFFFFF" fill-rule="evenodd" d="M16.165 2.545c2.894-2.886 7.601-2.886 10.494 0a7.398 7.398 0 010 10.468l-10.144 10.12a2.973 2.973 0 01-4.197 0L24.56 10.92a4.407 4.407 0 001.304-3.14 4.407 4.407 0 00-1.304-3.141 4.465 4.465 0 00-6.297 0l-8.045 8.025L6.37 8.826a1.478 1.478 0 010-2.094 1.487 1.487 0 012.099 0l1.749 1.745zM132.425 6.7c4.449 0 7.127 2.83 7.127 7.471 0 .566-.069 1.132-.069 1.2h-10.325c.068 1.902 1.702 3.283 3.63 3.283 1.816 0 2.815-.906 3.291-2.196l3.291.973c-.749 2.49-3.018 4.573-6.581 4.573-3.972 0-7.467-2.852-7.467-7.72 0-4.595 3.405-7.584 7.104-7.584zm-69.359 0c4.585 0 6.287 2.581 6.287 5.479v7.086c0 .77.09 1.788.181 2.286H65.95c-.069-.362-.137-1.154-.137-1.72-.749 1.154-2.133 2.15-4.266 2.15-3.086 0-4.97-2.082-4.97-4.346 0-2.581 1.906-4.03 4.312-4.392l3.563-.52c.817-.114 1.089-.521 1.089-1.02 0-1.018-.794-1.878-2.428-1.878-1.702 0-2.655 1.086-2.769 2.354l-3.472-.725c.227-2.263 2.315-4.754 6.195-4.754zM98.913.34v16.345c0 1.245.704 1.607 1.68 1.607.204 0 .408 0 .68-.022v3.328a7.316 7.316 0 01-1.61.18c-2.815 0-4.585-1.652-4.585-4.436V.34h3.835zM41.531 2.83v4.312h2.91v3.461h-2.91v6.043c0 1.26.588 1.672 1.705 1.672.47 0 1-.06 1.206-.118v3.227c-.353.146-1.059.352-2.206.352-2.822 0-4.587-1.672-4.587-4.459v-6.717h-2.616v-3.46h.734c1.53 0 2.235-.998 2.235-2.289V2.83h3.529zm45.594 3.917c3.586 0 5.22 2.558 5.22 5.727v9.1h-3.903v-8.42c0-1.608-.795-2.876-2.678-2.876-1.702 0-2.701 1.313-2.701 2.989v8.285H79.16V7.132h3.79V8.92c.885-1.494 2.61-2.173 4.175-2.173zm31.078 0c3.586 0 5.22 2.558 5.22 5.727v9.1h-3.904v-8.42c0-1.608-.794-2.876-2.677-2.876-1.703 0-2.701 1.313-2.701 2.989v8.285h-3.903V7.132h3.79V8.92c.885-1.494 2.61-2.173 4.175-2.173zm-63.51.271c.317 0 .612.046.908.068v3.917a5.745 5.745 0 00-1.18-.113c-1.998 0-3.722.973-3.722 4.074v6.588h-3.904V7.132h3.79v2.15c.885-1.901 2.882-2.264 4.108-2.264zm21.49.114v14.42H72.28V7.132h3.904zm31.078 0v14.42h-3.903V7.132h3.903zM2.173 2.545C4.95-.224 9.394-.335 12.306 2.208l-2.107 2.101a4.467 4.467 0 00-5.927.33 4.439 4.439 0 000 6.28l5.947 5.933 10.144-10.12a1.487 1.487 0 012.099 0c.58.578.58 1.516 0 2.094L10.219 21.039l-8.046-8.026A7.345 7.345 0 010 7.78c0-1.977.772-3.836 2.173-5.234zm63.344 12.533l-3.268.498c-.998.136-1.792.702-1.792 1.81 0 .861.612 1.676 1.883 1.676 1.657 0 3.177-.792 3.177-3.35v-.634zm66.931-5.23c-2.02 0-3.131 1.54-3.222 2.853h6.445c-.046-1.45-.999-2.853-3.223-2.853zM74.21 0a2.395 2.395 0 012.406 2.423A2.385 2.385 0 0174.209 4.8c-1.316 0-2.405-1.087-2.405-2.377 0-1.359 1.089-2.445 2.405-2.423zm31.1 0a2.394 2.394 0 012.406 2.423A2.385 2.385 0 01105.31 4.8c-1.317 0-2.406-1.087-2.406-2.377 0-1.359 1.067-2.445 2.406-2.423z"></path></svg>