<svg width="45" height="45" viewBox="0 0 45 45" xmlns="http://www.w3.org/2000/svg" class="_1ak9dgh"><g id="IconLockCircular"><circle fill="#21314D" cx="22.5" cy="22.5" r="22.5"></circle><path d="M30.4571557,16.1638765 L30.4571557,13.2169166 C30.4501015,9.23154245 27.152539,6.00345054 23.0849265,6 L21.4850503,6 C17.414943,6.00345715 14.1163496,9.23536373 14.1128211,13.2231867 L14.1128211,16.1638765 C12.4613391,16.24069 11.1612081,17.5724386 11.15625,19.192348 L11.15625,32.0586493 C11.15625,33.7416166 12.5487157,35.1059312 14.2664092,35.1059312 L30.3035676,35.1059312 C32.0212611,35.1059312 33.4137268,33.7416166 33.4137268,32.0586493 L33.4137268,19.192348 C33.4087687,17.5724386 32.1086378,16.24069 30.4571557,16.1638765 Z M16.0326725,13.2169166 C16.0361989,10.2679618 18.4752471,7.87822322 21.4850503,7.87476808 L23.0849265,7.87476808 C26.0947297,7.87822322 28.5337779,10.2679618 28.5373043,13.2169166 L28.5373043,16.1638765 L16.0326725,16.1638765 L16.0326725,13.2169166 Z M31.4938754,32.0272987 C31.4938754,32.6713973 30.9609565,33.1935424 30.3035676,33.1935424 L14.2664092,33.1935424 C13.6090203,33.1935424 13.0761014,32.6713973 13.0761014,32.0272987 L13.0761014,19.192348 C13.0865846,18.5556072 13.6164454,18.0448318 14.2664092,18.0449147 L30.3035676,18.0449147 C30.9609565,18.0449147 31.4938754,18.5670597 31.4938754,19.2111583 L31.4938754,32.0272987 Z M22.1337827,21.4834621 C21.0727051,21.4879571 20.1553424,22.2136855 19.921781,23.2333832 C19.6882197,24.253081 20.200341,25.2965832 21.1566395,25.7495401 L20.664553,28.741335 L23.6100423,28.741335 L23.110926,25.7495401 C24.0672244,25.2965832 24.5793457,24.253081 24.3457844,23.2333832 C24.1122231,22.2136855 23.1948603,21.4879571 22.1337827,21.4834621 Z" fill="#FFFFFF"></path></g></svg>